<?xml version="1.0" encoding="UTF-8" standalone="no"?>
<svg
   xmlns:dc="http://purl.org/dc/elements/1.1/"
   xmlns:cc="http://creativecommons.org/ns#"
   xmlns:rdf="http://www.w3.org/1999/02/22-rdf-syntax-ns#"
   xmlns:svg="http://www.w3.org/2000/svg"
   xmlns="http://www.w3.org/2000/svg"
   xmlns:sodipodi="http://sodipodi.sourceforge.net/DTD/sodipodi-0.dtd"
   xmlns:inkscape="http://www.inkscape.org/namespaces/inkscape"
   version="1.1"
   id="svg368"
   width="190.24368"
   height="107.94576"
   viewBox="0 0 190.24368 107.94576"
   sodipodi:docname="logo.svg"
   inkscape:version="1.0 (4035a4f, 2020-05-01)">
  <metadata
     id="metadata374">
    <rdf:RDF>
      <cc:Work
         rdf:about="">
        <dc:format>image/svg+xml</dc:format>
        <dc:type
           rdf:resource="http://purl.org/dc/dcmitype/StillImage" />
        <dc:title />
      </cc:Work>
    </rdf:RDF>
  </metadata>
  <defs
     id="defs372" />
  <sodipodi:namedview
     inkscape:document-rotation="0"
     pagecolor="#ffffff"
     bordercolor="#666666"
     borderopacity="1"
     objecttolerance="10"
     gridtolerance="10"
     guidetolerance="10"
     inkscape:pageopacity="0"
     inkscape:pageshadow="2"
     inkscape:window-width="1246"
     inkscape:window-height="729"
     id="namedview370"
     showgrid="false"
     inkscape:zoom="2.2640415"
     inkscape:cx="78.142828"
     inkscape:cy="83.299397"
     inkscape:window-x="34"
     inkscape:window-y="23"
     inkscape:window-maximized="0"
     inkscape:current-layer="g376" />
  <g
     inkscape:groupmode="layer"
     inkscape:label="Image"
     id="g376"
     transform="translate(-15.623712,-51.948535)">
    <path
       style="fill:none;stroke:#000000;stroke-width:0.917991px;stroke-linecap:butt;stroke-linejoin:miter;stroke-opacity:1"
       d="m 67.176617,60.277955 c 18.415684,-8.130303 37.290643,-0.15946 54.937353,5.189064 26.11319,7.914623 76.22744,26.908632 76.22744,26.908632 v 21.118829 l -46.22714,35.84725 -46.97879,-13.67369 c 0,0 -24.804799,27.34738 -54.119566,16.26059 C 21.701142,140.84186 23.452025,119.03252 23.204463,113.49448 21.701142,79.864592 51.391739,68.038696 67.176617,60.277955 Z"
       id="path380"
       sodipodi:nodetypes="csccccssc" />
    <path
       style="fill:none;stroke:#000000;stroke-width:0.917991px;stroke-linecap:butt;stroke-linejoin:miter;stroke-opacity:1"
       d="M 99.122199,125.68993 C 91.60559,136.03759 76.572372,150.81996 55.150048,145.27658 39.863278,141.32087 29.59358,127.53773 32.224394,108.69021 34.855211,89.842695 64.169968,95.386082 64.169968,95.386082 l 85.689332,28.825618 -1e-5,16.63016 z"
       id="path382"
       sodipodi:nodetypes="csscccc" />
    <path
       sodipodi:nodetypes="ccccc"
       style="fill:none;stroke:#000000;stroke-width:0.917991px;stroke-linecap:butt;stroke-linejoin:miter;stroke-opacity:1"
       d="m 154.36926,124.68462 v 14.679 L 193.02954,109.39 193.25002,96.455431 Z"
       id="path384" />
    <path
       style="fill:none;stroke:#000000;stroke-width:0.917991px;stroke-linecap:butt;stroke-linejoin:miter;stroke-opacity:1"
       d="m 90.594761,96.068778 33.073069,-23.651794 16.53654,4.80427 -33.82473,24.760466 z"
       id="path386" />
  </g>
</svg>
