<?xml version="1.0" encoding="UTF-8" standalone="no"?>
<svg
   xmlns:dc="http://purl.org/dc/elements/1.1/"
   xmlns:cc="http://creativecommons.org/ns#"
   xmlns:rdf="http://www.w3.org/1999/02/22-rdf-syntax-ns#"
   xmlns:svg="http://www.w3.org/2000/svg"
   xmlns="http://www.w3.org/2000/svg"
   xmlns:sodipodi="http://sodipodi.sourceforge.net/DTD/sodipodi-0.dtd"
   xmlns:inkscape="http://www.inkscape.org/namespaces/inkscape"
   sodipodi:docname="wb-logo.svg"
   inkscape:version="1.0 (4035a4f, 2020-05-01)"
   id="svg292"
   version="1.1"
   viewBox="0 0 210 297"
   height="297mm"
   width="210mm">
  <defs
     id="defs286">
    <rect
       id="rect504"
       height="46.977517"
       width="114.44147"
       y="79.473244"
       x="11.302861" />
    <rect
       id="rect296"
       height="48.390375"
       width="189.67614"
       y="10.949647"
       x="8.8303604" />
  </defs>
  <sodipodi:namedview
     inkscape:window-maximized="0"
     inkscape:window-y="23"
     inkscape:window-x="34"
     inkscape:window-height="729"
     inkscape:window-width="1246"
     showgrid="false"
     inkscape:document-rotation="0"
     inkscape:current-layer="layer1"
     inkscape:document-units="mm"
     inkscape:cy="317.90393"
     inkscape:cx="415.3106"
     inkscape:zoom="0.74907286"
     inkscape:pageshadow="2"
     inkscape:pageopacity="0.0"
     borderopacity="1.0"
     bordercolor="#666666"
     pagecolor="#ffffff"
     id="base" />
  <metadata
     id="metadata289">
    <rdf:RDF>
      <cc:Work
         rdf:about="">
        <dc:format>image/svg+xml</dc:format>
        <dc:type
           rdf:resource="http://purl.org/dc/dcmitype/StillImage" />
        <dc:title></dc:title>
      </cc:Work>
    </rdf:RDF>
  </metadata>
  <g
     id="layer1"
     inkscape:groupmode="layer"
     inkscape:label="Layer 1">
    <g
       transform="translate(-3.8853586,-5.2982162)"
       style="font-style:normal;font-weight:normal;font-size:10.5833px;line-height:1.25;font-family:sans-serif;white-space:pre;shape-inside:url(#rect296);fill:#000000;fill-opacity:1;stroke:none"
       id="text294"
       aria-label="Whistle Blower">
      <path
         id="path457"
         style="font-style:normal;font-variant:normal;font-weight:normal;font-stretch:normal;font-size:22.5778px;font-family:Futura;-inkscape-font-specification:Futura"
         d="M 11.707425,13.9196 16.1392,25.296694 20.769413,13.092776 25.201189,25.296694 29.908572,13.9196 h 2.789152 L 25.090945,32.021528 20.714292,19.960925 16.150224,32.032552 8.9182727,13.9196 Z" />
      <path
         id="path459"
         style="font-style:normal;font-variant:normal;font-weight:normal;font-stretch:normal;font-size:22.5778px;font-family:Futura;-inkscape-font-specification:Futura"
         d="m 34.340348,12.321074 h 2.480471 v 8.775356 q 1.322918,-1.190626 2.921444,-1.190626 1.819012,0 2.91042,1.179601 0.926042,1.025262 0.926042,3.274223 v 6.581517 h -2.480471 v -6.350007 q 0,-1.289845 -0.463021,-1.863109 -0.451997,-0.584289 -1.466235,-0.584289 -1.300869,0 -1.830036,0.804775 -0.518143,0.815799 -0.518143,2.800176 v 5.192454 h -2.480471 z" />
      <path
         id="path461"
         style="font-style:normal;font-variant:normal;font-weight:normal;font-stretch:normal;font-size:22.5778px;font-family:Futura;-inkscape-font-specification:Futura"
         d="M 49.21215,20.20346 V 30.941145 H 46.731678 V 20.20346 Z m -2.855298,-4.464848 q 0,-0.650435 0.474045,-1.124481 0.474046,-0.474045 1.135505,-0.474045 0.672483,0 1.146529,0.474045 0.474045,0.463022 0.474045,1.135505 0,0.672483 -0.474045,1.146529 -0.463021,0.474046 -1.135505,0.474046 -0.672483,0 -1.146529,-0.474046 -0.474045,-0.474046 -0.474045,-1.157553 z" />
      <path
         id="path463"
         style="font-style:normal;font-variant:normal;font-weight:normal;font-stretch:normal;font-size:22.5778px;font-family:Futura;-inkscape-font-specification:Futura"
         d="m 58.615893,22.033497 -2.050523,1.091407 q -0.48507,-0.992188 -1.201651,-0.992188 -0.341753,0 -0.584288,0.23151 -0.242535,0.220487 -0.242535,0.573265 0,0.617361 1.433161,1.223699 1.973353,0.848872 2.65686,1.565453 0.683508,0.71658 0.683508,1.929255 0,1.554429 -1.146529,2.601739 -1.113456,0.992189 -2.689933,0.992189 -2.700958,0 -3.825438,-2.634812 l 2.116668,-0.981164 q 0.440973,0.771702 0.672484,0.981164 0.451997,0.418924 1.080383,0.418924 1.256772,0 1.256772,-1.146529 0,-0.661459 -0.97014,-1.234724 -0.374827,-0.187413 -0.749653,-0.363802 -0.374827,-0.176389 -0.760678,-0.363802 -1.080383,-0.529168 -1.521356,-1.058335 -0.56224,-0.672483 -0.56224,-1.730818 0,-1.400088 0.959115,-2.315106 0.981165,-0.915018 2.381253,-0.915018 2.061547,0 3.06476,2.127693 z" />
      <path
         id="path465"
         style="font-style:normal;font-variant:normal;font-weight:normal;font-stretch:normal;font-size:22.5778px;font-family:Futura;-inkscape-font-specification:Futura"
         d="m 64.106005,22.518567 v 8.422578 H 61.625533 V 22.518567 H 60.567199 V 20.20346 h 1.058334 v -3.935681 h 2.480472 v 3.935681 h 1.929255 v 2.315107 z" />
      <path
         id="path467"
         style="font-style:normal;font-variant:normal;font-weight:normal;font-stretch:normal;font-size:22.5778px;font-family:Futura;-inkscape-font-specification:Futura"
         d="M 70.202449,12.321074 V 30.941145 H 67.721978 V 12.321074 Z" />
      <path
         id="path469"
         style="font-style:normal;font-variant:normal;font-weight:normal;font-stretch:normal;font-size:22.5778px;font-family:Futura;-inkscape-font-specification:Futura"
         d="m 83.144998,26.156591 h -7.694973 q 0.09922,1.322918 0.859896,2.105645 0.760678,0.771702 1.951304,0.771702 0.926043,0 1.53238,-0.440973 0.595314,-0.440973 1.355991,-1.631599 l 2.094621,1.168578 q -0.48507,0.826824 -1.025262,1.422137 -0.540191,0.584289 -1.157553,0.97014 -0.617362,0.374826 -1.333942,0.551215 -0.716581,0.17639 -1.554429,0.17639 -2.403301,0 -3.858511,-1.543405 -1.45521,-1.554429 -1.45521,-4.123094 0,-2.546617 1.411113,-4.123095 1.422137,-1.554428 3.770316,-1.554428 2.370228,0 3.748268,1.510331 1.367015,1.499307 1.367015,4.156167 z m -2.546617,-2.028474 q -0.518143,-1.984377 -2.50252,-1.984377 -0.451997,0 -0.848873,0.143316 -0.396875,0.132292 -0.727605,0.396875 -0.319705,0.25356 -0.551215,0.617362 -0.231511,0.363803 -0.352779,0.826824 z" />
      <path
         id="path471"
         style="font-style:normal;font-variant:normal;font-weight:normal;font-stretch:normal;font-size:22.5778px;font-family:Futura;-inkscape-font-specification:Futura"
         d="M 104.23702,43.303649 V 26.282104 h 2.55764 q 1.70877,0 2.72301,0.264583 1.02526,0.264584 1.73082,0.89297 0.71658,0.650434 1.1355,1.620574 0.42995,0.981165 0.42995,1.984377 0,1.830037 -1.40009,3.097833 1.35599,0.463022 2.13872,1.620575 0.79375,1.146529 0.79375,2.667885 0,1.995401 -1.41111,3.373441 -0.84888,0.848872 -1.90721,1.179601 -1.15755,0.319706 -2.89939,0.319706 z m 2.56867,-9.712423 h 0.80477 q 1.43316,0 2.09462,-0.628386 0.67249,-0.639411 0.67249,-1.874134 0,-1.201651 -0.68351,-1.819013 -0.68351,-0.628386 -1.98438,-0.628386 h -0.90399 z m 0,7.298097 h 1.5875 q 1.74184,0 2.55764,-0.683507 0.8599,-0.73863 0.8599,-1.874134 0,-1.102432 -0.82683,-1.852085 -0.80477,-0.73863 -2.87734,-0.73863 h -1.30087 z" />
      <path
         id="path473"
         style="font-style:normal;font-variant:normal;font-weight:normal;font-stretch:normal;font-size:22.5778px;font-family:Futura;-inkscape-font-specification:Futura"
         d="m 119.60492,24.683578 v 18.620071 h -2.48047 V 24.683578 Z" />
      <path
         id="path475"
         style="font-style:normal;font-variant:normal;font-weight:normal;font-stretch:normal;font-size:22.5778px;font-family:Futura;-inkscape-font-specification:Futura"
         d="m 122.26178,37.857636 q 0,-2.326131 1.66467,-3.95773 1.66467,-1.631598 4.05695,-1.631598 2.4033,0 4.07899,1.642623 1.65365,1.642623 1.65365,4.0349 0,2.414325 -1.66467,4.045924 -1.6757,1.620575 -4.11207,1.620575 -2.41433,0 -4.04592,-1.653648 -1.6316,-1.631599 -1.6316,-4.101046 z m 2.53559,0.0441 q 0,1.609551 0.8599,2.546618 0.88194,0.948091 2.32613,0.948091 1.45521,0 2.32613,-0.937067 0.87092,-0.937067 0.87092,-2.50252 0,-1.565453 -0.87092,-2.50252 -0.88195,-0.948091 -2.32613,-0.948091 -1.42214,0 -2.30409,0.948091 -0.88194,0.948091 -0.88194,2.447398 z" />
      <path
         id="path477"
         style="font-style:normal;font-variant:normal;font-weight:normal;font-stretch:normal;font-size:22.5778px;font-family:Futura;-inkscape-font-specification:Futura"
         d="m 137.25485,32.565964 2.8112,6.12952 3.03168,-7.110684 3.05374,7.110684 2.77813,-6.12952 h 2.77812 l -5.6224,11.54246 -2.98759,-6.912247 -3.02066,6.912247 -5.61138,-11.54246 z" />
      <path
         id="path479"
         style="font-style:normal;font-variant:normal;font-weight:normal;font-stretch:normal;font-size:22.5778px;font-family:Futura;-inkscape-font-specification:Futura"
         d="m 162.79819,38.519095 h -7.69497 q 0.0992,1.322918 0.85989,2.105645 0.76068,0.771702 1.95131,0.771702 0.92604,0 1.53238,-0.440973 0.59531,-0.440973 1.35599,-1.631599 l 2.09462,1.168578 q -0.48507,0.826824 -1.02526,1.422137 -0.5402,0.584289 -1.15756,0.97014 -0.61736,0.374826 -1.33394,0.551215 -0.71658,0.17639 -1.55443,0.17639 -2.4033,0 -3.85851,-1.543405 -1.45521,-1.554429 -1.45521,-4.123094 0,-2.546617 1.41111,-4.123095 1.42214,-1.554428 3.77032,-1.554428 2.37023,0 3.74827,1.510331 1.36701,1.499307 1.36701,4.156167 z m -2.54662,-2.028474 q -0.51814,-1.984377 -2.50252,-1.984377 -0.452,0 -0.84887,0.143316 -0.39688,0.132292 -0.72761,0.396875 -0.3197,0.25356 -0.55121,0.617362 -0.23151,0.363803 -0.35278,0.826824 z" />
      <path
         id="path481"
         style="font-style:normal;font-variant:normal;font-weight:normal;font-stretch:normal;font-size:22.5778px;font-family:Futura;-inkscape-font-specification:Futura"
         d="m 165.49914,32.565964 h 2.48047 v 0.959116 q 0.68351,-0.716581 1.21268,-0.981165 0.54019,-0.275607 1.27882,-0.275607 0.98116,0 2.05052,0.63941 l -1.1355,2.271009 q -0.70556,-0.507118 -1.37804,-0.507118 -2.02848,0 -2.02848,3.06476 v 5.56728 h -2.48047 z" />
    </g>
    <path
       style="fill:none;stroke:#000000;stroke-width:0.264583px;stroke-linecap:butt;stroke-linejoin:miter;stroke-opacity:1"
       d="m 67.021012,34.776763 c 5.2633,-2.363115 15.46766,0.751899 15.46766,0.751899 l 22.019928,9.774706 v 4.941057 L 91.296639,60.663616 77.869852,56.689286 c 0,0 -7.08934,7.94866 -15.467659,4.726228 -8.378319,-3.222429 -7.877907,-9.561428 -7.948662,-11.171089 -0.429657,-9.774703 8.056074,-13.211962 12.567481,-15.467662 z"
       id="path380"
       sodipodi:nodetypes="ccccccssc" />
    <path
       style="fill:none;stroke:#000000;stroke-width:0.264583px;stroke-linecap:butt;stroke-linejoin:miter;stroke-opacity:1"
       d="m 76.151222,53.789098 c -2.14828,3.0076 -6.44486,7.304175 -12.56747,5.69296 -4.369042,-1.149747 -7.304177,-5.155888 -6.552276,-10.63402 0.751901,-5.478129 9.130216,-3.866914 9.130216,-3.866914 l 24.490467,8.378317 v 4.833644 z"
       id="path382"
       sodipodi:nodetypes="csscccc" />
    <path
       style="fill:none;stroke:#000000;stroke-width:0.264583px;stroke-linecap:butt;stroke-linejoin:miter;stroke-opacity:1"
       d="m 91.941129,52.929784 v 4.833644 l 10.419191,-8.270902 v -3.759501 z"
       id="path384" />
    <path
       style="fill:none;stroke:#000000;stroke-width:0.264583px;stroke-linecap:butt;stroke-linejoin:miter;stroke-opacity:1"
       d="m 67.987732,42.725424 9.45246,-6.874518 4.72624,1.396387 -9.6673,7.196758 z"
       id="path386" />
    <text
       style="font-style:normal;font-weight:normal;font-size:10.58329999999999949px;line-height:1.25;font-family:sans-serif;white-space:pre;shape-inside:url(#rect504);fill:#000000;fill-opacity:1;stroke:none;"
       id="text502"
       xml:space="preserve"><tspan
         x="11.302734"
         y="89.128121"><tspan
           style="font-style:normal;font-variant:normal;font-weight:normal;font-stretch:normal;font-family:'Al Bayan';-inkscape-font-specification:'Al Bayan'">Whistle</tspan></tspan></text>
  </g>
</svg>
